<?xml version="1.0" encoding="utf-8"?>
<!-- Generator: Adobe Illustrator 15.1.0, SVG Export Plug-In  -->
<!DOCTYPE svg PUBLIC "-//W3C//DTD SVG 1.1//EN" "http://www.w3.org/Graphics/SVG/1.1/DTD/svg11.dtd" [
	<!ENTITY ns_flows "http://ns.adobe.com/Flows/1.0/">
]>
<svg version="1.1"
	 xmlns="http://www.w3.org/2000/svg" xmlns:xlink="http://www.w3.org/1999/xlink" xmlns:a="http://ns.adobe.com/AdobeSVGViewerExtensions/3.0/"
	 x="0px" y="0px" width="190px" height="174px" viewBox="0 0 190 174" enable-background="new 0 0 190 174" xml:space="preserve">
<defs>
</defs>
<path fill="#5B5B5F" d="M4.022,140.853c0-0.99,0.871-1.868,1.861-1.868c1.051,0,1.868,0.878,1.868,1.868v6.145h3.785
	c0.995,0,1.751,0.762,1.751,1.754c0,0.999-0.756,1.755-1.751,1.755H7.751v16.151c0,2.517,1.396,3.859,3.38,3.859
	c0.99,0,1.804,0.762,1.804,1.761c0,0.992-0.813,1.749-1.804,1.749c-4.605,0-7.109-3.102-7.109-7.369v-16.151H1.749
	c-0.994,0-1.749-0.756-1.749-1.755c0-0.992,0.755-1.754,1.749-1.754h2.273V140.853L4.022,140.853z"/>
<path fill="#5B5B5F" d="M21.969,148.401v15.272c0,3.809,1.223,7.077,7.111,7.077c5.885,0,7.108-3.269,7.108-7.077v-15.272
	c0-1.049,0.876-1.869,1.926-1.869c0.99,0,1.807,0.82,1.807,1.869v15.272c0,5.559-1.807,10.646-10.841,10.646
	c-8.976,0-10.84-5.087-10.84-10.646v-15.272c0-1.049,0.816-1.869,1.864-1.869C21.096,146.532,21.969,147.353,21.969,148.401z"/>
<path fill="#5B5B5F" d="M57.171,146.183c5.19,0,8.043,2.746,8.973,4.032c0.293,0.413,0.41,0.702,0.41,1.112
	c0,0.992-0.756,1.697-1.689,1.697c-0.583,0-0.993-0.233-1.401-0.705c-0.874-0.992-2.447-2.745-6.293-2.745
	c-5.365,0-8.218,3.45-8.218,10.648c0,7.312,2.854,10.702,8.218,10.702c3.378,0,5.42-1.517,6.759-2.513
	c0.41-0.293,0.702-0.407,1.107-0.407c0.935,0,1.691,0.75,1.691,1.696c0,0.524-0.175,0.931-0.757,1.463
	c-1.283,1.05-4.08,3.155-8.801,3.155c-7.518,0-12.007-4.504-12.007-14.097C45.164,150.628,49.653,146.183,57.171,146.183z"/>
<path fill="#5B5B5F" d="M72.206,138.807c0-1.698,0.815-2.341,2.216-2.341c1.396,0,2.214,0.643,2.214,2.341
	c0,1.405-0.818,2.225-2.214,2.225C73.021,141.031,72.206,140.212,72.206,138.807z M76.285,172.156c0,1.052-0.818,1.87-1.863,1.87
	c-1.053,0-1.866-0.818-1.866-1.87v-23.755c0-1.049,0.813-1.869,1.866-1.869c1.045,0,1.863,0.82,1.863,1.869V172.156z"/>
<path fill="#5B5B5F" d="M87.008,148.401v15.272c0,3.809,1.224,7.077,7.108,7.077c5.891,0,7.11-3.269,7.11-7.077v-15.272
	c0-1.049,0.88-1.869,1.924-1.869c0.993,0,1.81,0.82,1.81,1.869v15.272c0,5.559-1.81,10.646-10.844,10.646
	c-8.972,0-10.84-5.087-10.84-10.646v-15.272c0-1.049,0.819-1.869,1.868-1.869C86.134,146.532,87.008,147.353,87.008,148.401z"/>
<path fill="#5B5B5F" d="M129.841,149.984v-16.212c0-1.047,0.818-1.872,1.869-1.872c1.046,0,1.867,0.825,1.867,1.872v29.023
	c0,7.721-4.778,11.523-11.426,11.523c-7.516,0-11.954-4.504-11.954-14.097c0-9.595,4.203-14.04,11.724-14.04
	C125.649,146.183,128.505,148.108,129.841,149.984z M129.841,154.721c0,0-2.212-5.146-7.689-5.146c-5.307,0-8.217,3.45-8.217,10.648
	c0,7.312,2.854,10.702,8.217,10.702c4.489,0,7.689-2.569,7.689-8.129V154.721z"/>
<path fill="#5B5B5F" d="M144.121,152.673c-0.581,0.646-0.989,0.816-1.517,0.816c-0.931,0-1.687-0.757-1.687-1.692
	c0-0.413,0.118-0.704,0.288-0.998c1.633-2.572,4.78-4.616,9.678-4.616c6.759,0,10.49,3.974,10.49,9.943v16.088
	c0,0.994-0.815,1.813-1.808,1.813c-0.988,0-1.808-0.818-1.808-1.813v-2.105c-1.459,2.754-4.834,4.211-8.338,4.211
	c-6.172,0-10.077-2.979-10.077-8.368c0-5.145,3.905-8.249,10.193-8.249h8.222v-1.576c0-3.974-2.62-6.435-6.875-6.435
	C147.793,149.691,145.928,150.628,144.121,152.673z M157.758,163.438v-2.459h-8.222c-3.785,0-6.405,1.582-6.405,4.972
	c0,3.05,2.099,4.974,6.645,4.974C153.853,170.925,157.758,168.412,157.758,163.438z"/>
<path fill="#5B5B5F" d="M186.256,149.984v-16.212c0-1.047,0.819-1.872,1.863-1.872c1.052,0,1.871,0.825,1.871,1.872v29.023
	c0,7.721-4.778,11.523-11.429,11.523c-7.518,0-11.949-4.504-11.949-14.097c0-9.595,4.197-14.04,11.718-14.04
	C182.061,146.183,184.921,148.108,186.256,149.984z M186.256,154.721c0,0-2.215-5.146-7.694-5.146c-5.307,0-8.214,3.45-8.214,10.648
	c0,7.312,2.854,10.702,8.214,10.702c4.489,0,7.694-2.569,7.694-8.129V154.721z"/>
<path fill="#E3AF3A" d="M32.151,115.712c0,4.978-4.015,9.011-8.976,9.011l0,0c-4.957,0-8.979-4.033-8.979-9.011V95.523
	c0-4.979,4.022-9.009,8.979-9.009l0,0c4.961,0,8.976,4.03,8.976,9.009V115.712z"/>
<path fill="#52A071" d="M68.062,115.712c0,4.978-4.02,9.011-8.977,9.011l0,0c-4.961,0-8.976-4.033-8.976-9.011V37.848
	c0-4.978,4.015-9.011,8.976-9.011l0,0c4.957,0,8.977,4.033,8.977,9.011V115.712z"/>
<path fill="#76A9DA" d="M103.971,115.712c0,4.978-4.022,9.011-8.978,9.011l0,0c-4.958,0-8.978-4.033-8.978-9.011V9.012
	c0-4.979,4.02-9.012,8.978-9.012l0,0c4.956,0,8.978,4.034,8.978,9.012V115.712z"/>
<path fill="#C5525C" d="M139.875,115.712c0,4.978-4.015,9.011-8.979,9.011l0,0c-4.954,0-8.971-4.033-8.971-9.011V66.687
	c0-4.978,4.017-9.011,8.971-9.011l0,0c4.964,0,8.979,4.033,8.979,9.011V115.712z"/>
<path fill="#D0763A" d="M175.787,115.712c0,4.978-4.015,9.011-8.979,9.011l0,0c-4.954,0-8.979-4.033-8.979-9.011V95.523
	c0-4.979,4.024-9.009,8.979-9.009l0,0c4.965,0,8.979,4.03,8.979,9.009V115.712z"/>
</svg>
