<?xml version="1.0" encoding="utf-8"?>
<!-- Generator: Adobe Illustrator 15.0.0, SVG Export Plug-In . SVG Version: 6.00 Build 0)  -->
<!DOCTYPE svg PUBLIC "-//W3C//DTD SVG 1.1//EN" "http://www.w3.org/Graphics/SVG/1.1/DTD/svg11.dtd">
<svg version="1.1" id="logo-tuciudad" xmlns="http://www.w3.org/2000/svg" xmlns:xlink="http://www.w3.org/1999/xlink" x="0px"
	 y="0px" width="100%" height="100%" viewBox="0 0 1367.9316 289.4849"
	 enable-background="new 0 0 1367.9316 289.4849" xml:space="preserve">
<g id="tuciudad">
	<g>
		<path class="let-tu" fill="#5B5B5F" d="M42.1563,204.563c0-1.1074,0.9746-2.0859,2.084-2.0859c1.1738,0,2.0879,0.9785,2.0879,2.0859v6.8457
			h4.2344c1.1104,0,1.9561,0.8457,1.9561,1.9531c0,1.1094-0.8457,1.9551-1.9561,1.9551h-4.2344v17.9941
			c0,2.8008,1.5625,4.2988,3.7803,4.2988c1.1064,0,2.0186,0.8477,2.0186,1.957c0,1.1074-0.9121,1.9551-2.0186,1.9551
			c-5.1504,0-7.9521-3.4531-7.9521-8.2109v-17.9941h-2.5439c-1.1084,0-1.9541-0.8457-1.9541-1.9551
			c0-1.1074,0.8457-1.9531,1.9541-1.9531h2.5439V204.563L42.1563,204.563z"/>
		<path class="let-tu" fill="#5B5B5F" d="M62.2305,212.9731v17.0117c0,4.2383,1.3672,7.8867,7.9521,7.8867c6.583,0,7.9521-3.6484,7.9521-7.8867
			v-17.0117c0-1.1738,0.9785-2.0859,2.1504-2.0859c1.1074,0,2.0215,0.9121,2.0215,2.0859v17.0117
			c0,6.1934-2.0215,11.8633-12.124,11.8633c-10.04,0-12.125-5.6699-12.125-11.8633v-17.0117c0-1.1738,0.9131-2.0859,2.085-2.0859
			C61.252,210.8872,62.2305,211.7993,62.2305,212.9731z"/>
		<path class="let-tu" fill="#5B5B5F" d="M101.5977,210.4946c5.8027,0,8.9971,3.0645,10.0391,4.4961c0.3262,0.459,0.457,0.7832,0.457,1.2402
			c0,1.1074-0.8467,1.8906-1.8906,1.8906c-0.6523,0-1.1064-0.2617-1.5645-0.7832c-0.9785-1.1074-2.7383-3.0645-7.041-3.0645
			c-5.9961,0-9.1895,3.8477-9.1895,11.8633c0,8.1484,3.1934,11.9316,9.1895,11.9316c3.7813,0,6.0625-1.6973,7.5625-2.8047
			c0.457-0.3262,0.7822-0.4551,1.2373-0.4551c1.0439,0,1.8916,0.8457,1.8916,1.8887c0,0.5859-0.1953,1.0449-0.8477,1.6309
			c-1.4346,1.1719-4.5625,3.5195-9.8438,3.5195c-8.4063,0-13.4277-5.0176-13.4277-15.7109
			C88.1699,215.4497,93.1914,210.4946,101.5977,210.4946z"/>
		<path class="let-tu" fill="#5B5B5F" d="M118.4141,202.2798c0-1.8906,0.9111-2.6055,2.4766-2.6055c1.5645,0,2.4775,0.7148,2.4775,2.6055
			c0,1.5664-0.9131,2.4805-2.4775,2.4805C119.3252,204.7603,118.4141,203.8462,118.4141,202.2798z M122.9766,239.436
			c0,1.1738-0.9141,2.0859-2.0859,2.0859c-1.1738,0-2.0859-0.9121-2.0859-2.0859v-26.4629c0-1.1738,0.9121-2.0859,2.0859-2.0859
			c1.1719,0,2.0859,0.9121,2.0859,2.0859V239.436z"/>
		<path class="let-tu" fill="#5B5B5F" d="M134.9697,212.9731v17.0117c0,4.2383,1.3701,7.8867,7.9512,7.8867c6.585,0,7.9521-3.6484,7.9521-7.8867
			v-17.0117c0-1.1738,0.9785-2.0859,2.1523-2.0859c1.1084,0,2.0205,0.9121,2.0205,2.0859v17.0117
			c0,6.1934-2.0205,11.8633-12.125,11.8633c-10.0371,0-12.123-5.6699-12.123-11.8633v-17.0117c0-1.1738,0.9121-2.0859,2.0859-2.0859
			C133.9922,210.8872,134.9697,211.7993,134.9697,212.9731z"/>
		<path class="let-tu" fill="#5B5B5F" d="M182.877,214.731v-18.0547c0-1.1738,0.9141-2.0879,2.0859-2.0879c1.1738,0,2.0859,0.9141,2.0859,2.0879
			v32.3301c0,8.6035-5.3438,12.8418-12.7773,12.8418c-8.4063,0-13.3604-5.0176-13.3604-15.7109
			c0-10.6875,4.6924-15.6426,13.1025-15.6426C178.1836,210.4946,181.3789,212.647,182.877,214.731z M182.877,220.0103
			c0,0-2.4766-5.7363-8.6055-5.7363c-5.9297,0-9.1895,3.8477-9.1895,11.8633c0,8.1484,3.1934,11.9316,9.1895,11.9316
			c5.0205,0,8.6055-2.8691,8.6055-9.0625V220.0103z"/>
		<path class="let-tu" fill="#5B5B5F" d="M198.8447,217.731c-0.6523,0.7168-1.1084,0.9121-1.6953,0.9121c-1.043,0-1.8906-0.8477-1.8906-1.8906
			c0-0.457,0.1318-0.7832,0.3262-1.1094c1.8262-2.8672,5.3447-5.1484,10.8203-5.1484c7.5625,0,11.7354,4.4316,11.7354,11.0801
			v17.9258c0,1.1094-0.9141,2.0215-2.0205,2.0215c-1.1094,0-2.0215-0.9121-2.0215-2.0215v-2.3438
			c-1.6309,3.0625-5.4111,4.6914-9.3232,4.6914c-6.9082,0-11.2744-3.3242-11.2744-9.3223c0-5.7363,4.3662-9.1914,11.4053-9.1914
			h9.1924v-1.7598c0-4.4297-2.9346-7.1699-7.6934-7.1699C202.9512,214.4048,200.8652,215.4497,198.8447,217.731z M214.0986,229.7231
			v-2.7383h-9.1924c-4.2373,0-7.1699,1.7617-7.1699,5.541c0,3.3906,2.3467,5.543,7.4307,5.543
			C209.7305,238.0688,214.0986,235.2642,214.0986,229.7231z"/>
		<path class="let-tu" fill="#5B5B5F" d="M245.9717,214.731v-18.0547c0-1.1738,0.9121-2.0879,2.084-2.0879c1.1729,0,2.0859,0.9141,2.0859,2.0879
			v32.3301c0,8.6035-5.3438,12.8418-12.7764,12.8418c-8.4082,0-13.3613-5.0176-13.3613-15.7109
			c0-10.6875,4.6924-15.6426,13.1035-15.6426C241.2793,210.4946,244.4717,212.647,245.9717,214.731z M245.9717,220.0103
			c0,0-2.4785-5.7363-8.6064-5.7363c-5.9307,0-9.1895,3.8477-9.1895,11.8633c0,8.1484,3.1934,11.9316,9.1895,11.9316
			c5.0205,0,8.6064-2.8691,8.6064-9.0625V220.0103z"/>
	</g>
	<g>
		<path fill="#E3AF3A" d="M73.6182,176.5513c0,5.5449-4.4922,10.0391-10.04,10.0391l0,0c-5.5439,0-10.041-4.4941-10.041-10.0391
			v-22.4922c0-5.5469,4.4971-10.0366,10.041-10.0366l0,0c5.5479,0,10.04,4.4897,10.04,10.0366V176.5513z"/>
		<path fill="#52A071" d="M113.7793,176.5513c0,5.5449-4.4951,10.0391-10.04,10.0391l0,0c-5.5469,0-10.04-4.4941-10.04-10.0391
			V89.8037c0-5.5459,4.4932-10.0391,10.04-10.0391l0,0c5.5449,0,10.04,4.4932,10.04,10.0391V176.5513z"/>
		<path fill="#76A9DA" d="M153.9395,176.5513c0,5.5449-4.4941,10.0391-10.041,10.0391l0,0c-5.5449,0-10.04-4.4941-10.04-10.0391
			V57.6772c0-5.5479,4.4951-10.0405,10.04-10.0405l0,0c5.5469,0,10.041,4.4927,10.041,10.0405V176.5513z"/>
		<path fill="#C5525C" d="M194.0977,176.5513c0,5.5449-4.4941,10.0391-10.041,10.0391l0,0c-5.5449,0-10.0361-4.4941-10.0361-10.0391
			v-54.6187c0-5.5469,4.4912-10.0391,10.0361-10.0391l0,0c5.5469,0,10.041,4.4922,10.041,10.0391V176.5513z"/>
		<path fill="#D0763A" d="M234.2617,176.5513c0,5.5449-4.4941,10.0391-10.043,10.0391l0,0c-5.5439,0-10.041-4.4941-10.041-10.0391
			v-22.4922c0-5.5469,4.4971-10.0366,10.041-10.0366l0,0c5.5488,0,10.043,4.4897,10.043,10.0366V176.5513z"/>
	</g>
</g>
<line class="let-tu" id="linea-vertical" fill="none" stroke="#5B5B5F" stroke-width="6" stroke-miterlimit="10" x1="323.7832" y1="35.7397" x2="323.7832" y2="253.7466"/>
<g id="letras">
	<g id="bot">
		<path fill="#E3AF3A" d="M618.0273,153.7173h9.1387c6.7354,0,14.2354,3.2051,14.2354,12.8887c0,9.0293-7.5,12.8887-14.2354,12.8887
			h-9.1387V153.7173z M626.4375,175.4888c4.7324,0,10.0488-1.9297,10.0488-8.8828c0-7.3906-5.3164-8.957-10.0488-8.957h-3.8232
			v17.8398H626.4375z"/>
		<path fill="#E3AF3A" d="M648.5732,153.7173h4.5869v25.7773h-4.5869V153.7173z"/>
		<path fill="#E3AF3A" d="M674.7139,159.106c-0.9824-1.2734-2.9121-2.2207-4.7324-2.2207c-2.1104,0-4.5508,1.0195-4.5508,3.5313
			c0,2.3672,2.002,3.0586,4.915,3.9688c3.3125,1.0195,7.5361,2.4766,7.5361,7.5371c0,5.5332-4.333,8.2266-9.3936,8.2266
			c-3.3486,0-6.8076-1.2734-8.8467-3.6758l3.2764-3.0586c1.2744,1.748,3.6045,2.8398,5.6436,2.8398
			c2.1484,0,4.6602-1.0566,4.6602-3.8223c0-2.6953-2.6943-3.459-5.9346-4.4785c-3.1309-0.9844-6.5166-2.5117-6.5166-7.3184
			c0-5.2422,4.7695-7.5723,9.4307-7.5723c2.584,0,5.5322,0.9102,7.5,2.7656L674.7139,159.106z"/>
		<path fill="#E3AF3A" d="M685.1992,153.7173h17.0752v4.0059h-12.4883v6.5527h11.833v3.8594h-11.833v7.2813h13.1436v4.0781h-17.7305
			V153.7173z"/>
		<path fill="#E3AF3A" d="M710.1377,153.7173h6.0801l11.9775,19.2969h0.0732v-19.2969h4.5869v25.7773h-5.8252l-12.2324-19.916
			h-0.0732v19.916h-4.5869V153.7173L710.1377,153.7173z M714.7617,151.5337c0.4004-2.3301,1.3467-4.623,4.0771-4.623
			c0.9834,0,2.0029,0.291,2.876,0.6543c0.9473,0.4004,1.7842,0.6914,2.3672,0.6914c0.9824,0,1.4199-0.7285,1.6748-1.5293h2.4033
			c-0.4014,2.3301-1.3477,4.625-4.0781,4.625c-1.0195,0-2.0752-0.3281-2.9854-0.7285c-0.874-0.4004-1.6748-0.6563-2.2578-0.6563
			c-0.9824,0-1.4199,0.7656-1.6748,1.5664H714.7617L714.7617,151.5337z"/>
		<path fill="#E3AF3A" d="M753.8281,153.063c8.0449,0,13.9063,5.2051,13.9063,13.4707c0,8.0449-5.8613,13.6152-13.9063,13.6152
			c-7.9375,0-13.7998-5.5703-13.7998-13.6152C740.0283,158.2681,745.8906,153.063,753.8281,153.063z M753.8633,176.0356
			c5.2793,0,8.8838-4.0039,8.8838-9.502c0-5.3164-3.5313-9.4297-8.8838-9.4297c-5.3154,0-8.8467,4.1133-8.8467,9.4297
			C745.0166,172.0317,748.6211,176.0356,753.8633,176.0356z"/>
		<path fill="#52A071" d="M786.7402,153.7173h4.5879v25.7773h-4.5879V153.7173z"/>
		<path fill="#52A071" d="M799.7383,153.7173h6.0801l11.9775,19.2969h0.0732v-19.2969h4.5869v25.7773h-5.8252l-12.2324-19.916
			h-0.0723v19.916h-4.5879V153.7173L799.7383,153.7173z"/>
		<path fill="#52A071" d="M836.0723,157.7231h-7.9004v-4.0059h20.3887v4.0059h-7.9004v21.7715h-4.5879V157.7231z"/>
		<path fill="#52A071" d="M854.2764,153.7173h17.0752v4.0059h-12.4883v6.5527h11.833v3.8594h-11.833v7.2813h13.1436v4.0781h-17.7305
			V153.7173L854.2764,153.7173z"/>
		<path fill="#52A071" d="M879.2158,153.7173h8.9561c4.8428,0,9.5029,1.9297,9.5029,7.3906c0,3.7148-2.2939,6.1543-5.8984,6.9551
			l6.8809,11.4316h-5.5342l-5.9707-10.9219h-3.3496v10.9219h-4.5869V153.7173L879.2158,153.7173z M887.5527,164.8228
			c2.585,0,5.5342-0.6191,5.5342-3.75c0-2.8047-2.7666-3.4961-5.1338-3.4961h-4.1504v7.2461H887.5527z"/>
		<path fill="#52A071" d="M912.9287,153.7173h3.9688l11.1045,25.7773h-5.2432l-2.4023-5.8984h-11.1777l-2.3301,5.8984h-5.1328
			L912.9287,153.7173z M918.7539,169.6646l-3.9678-10.4863l-4.04,10.4863H918.7539z"/>
		<path fill="#52A071" d="M951.2305,159.7622c-1.3477-1.8574-3.7871-2.6582-5.8613-2.6582c-5.3164,0-8.9209,4.1133-8.9209,9.4297
			c0,5.6055,3.4229,9.502,8.7383,9.502c2.7666,0,4.9512-1.2012,6.2617-2.9863l3.6777,2.5859
			c-2.2568,2.8398-5.6074,4.5137-9.9756,4.5137c-8.0459,0-13.7627-5.5703-13.7627-13.6152c0-8.2656,6.0439-13.4707,13.9814-13.4707
			c3.3486,0,7.3174,1.2383,9.3564,3.9316L951.2305,159.7622z"/>
		<path fill="#52A071" d="M965.6846,157.7231h-7.8994v-4.0059h20.3877v4.0059h-7.9004v21.7715h-4.5879V157.7231z"/>
		<path fill="#52A071" d="M983.8877,153.7173h4.5869v25.7773h-4.5869V153.7173z"/>
		<path fill="#52A071" d="M993.6816,153.7173h5.1338l7.0996,19.8418h0.1455l7.1719-19.8418h4.9512l-10.3389,25.7773h-3.9688
			L993.6816,153.7173z"/>
		<path fill="#52A071" d="M1035.5146,153.063c8.0459,0,13.9072,5.2051,13.9072,13.4707c0,8.0449-5.8613,13.6152-13.9072,13.6152
			c-7.9365,0-13.7988-5.5703-13.7988-13.6152C1021.7158,158.2681,1027.5781,153.063,1035.5146,153.063z M1035.5508,176.0356
			c5.2793,0,8.8838-4.0039,8.8838-9.502c0-5.3164-3.5313-9.4297-8.8838-9.4297c-5.3154,0-8.8467,4.1133-8.8467,9.4297
			C1026.7041,172.0317,1030.3086,176.0356,1035.5508,176.0356z"/>
		<path fill="#76A9DA" d="M1073.7793,168.3169l-9.6846-14.5996h5.6084l6.4795,10.8496l6.5527-10.8496h5.3154l-9.6846,14.5996
			v11.1777h-4.5869V168.3169z"/>
		<path fill="#76A9DA" d="M1103.8896,153.7173h17.0752v4.0059h-12.4883v6.5527h11.833v3.8594h-11.833v7.2813h13.1445v4.0781
			h-17.7314V153.7173z"/>
		<path fill="#76A9DA" d="M1135.0537,165.7329l-8.0098-12.0156h5.5342l5.3154,8.8105l5.2422-8.8105h5.2793l-7.8633,12.125
			l9.2471,13.6523h-5.7891l-6.2979-10.1211l-6.0439,10.1211h-5.5342L1135.0537,165.7329z"/>
		<path fill="#76A9DA" d="M1173.21,159.7622c-1.3477-1.8574-3.7871-2.6582-5.8623-2.6582c-5.3154,0-8.9199,4.1133-8.9199,9.4297
			c0,5.6055,3.4229,9.502,8.7383,9.502c2.7666,0,4.9512-1.2012,6.2617-2.9863l3.6777,2.5859
			c-2.2578,2.8398-5.6074,4.5137-9.9756,4.5137c-8.0459,0-13.7627-5.5703-13.7627-13.6152c0-8.2656,6.0449-13.4707,13.9805-13.4707
			c3.3496,0,7.3184,1.2383,9.3574,3.9316L1173.21,159.7622z"/>
		<path fill="#76A9DA" d="M1182.6758,153.7173h4.5869v21.6992h10.959v4.0781h-15.5459V153.7173z"/>
		<path fill="#76A9DA" d="M1223.6709,170.0278c0,6.2266-4.4785,10.1211-10.377,10.1211c-5.8975,0-10.376-3.8945-10.376-10.1211
			v-16.3105h4.5879v16.1289c0,2.9863,1.3828,6.1895,5.7881,6.1895s5.7891-3.2031,5.7891-6.1895v-16.1289h4.5879V170.0278z"/>
		<path fill="#76A9DA" d="M1245.0049,159.106c-0.9824-1.2734-2.9121-2.2207-4.7324-2.2207c-2.1104,0-4.5508,1.0195-4.5508,3.5313
			c0,2.3672,2.002,3.0586,4.915,3.9688c3.3125,1.0195,7.5361,2.4766,7.5361,7.5371c0,5.5332-4.333,8.2266-9.3936,8.2266
			c-3.3486,0-6.8076-1.2734-8.8467-3.6758l3.2764-3.0586c1.2744,1.748,3.6045,2.8398,5.6436,2.8398
			c2.1484,0,4.6602-1.0566,4.6602-3.8223c0-2.6953-2.6943-3.459-5.9346-4.4785c-3.1309-0.9844-6.5166-2.5117-6.5166-7.3184
			c0-5.2422,4.7695-7.5723,9.4297-7.5723c2.585,0,5.5332,0.9102,7.5,2.7656L1245.0049,159.106z"/>
		<path fill="#76A9DA" d="M1255.4902,153.7173h4.5879v25.7773h-4.5879V153.7173z"/>
		<path fill="#76A9DA" d="M1265.2852,153.7173h5.1328l7.0996,19.8418h0.1455l7.1719-19.8418h4.9512l-10.3389,25.7773h-3.9688
			L1265.2852,153.7173z"/>
		<path fill="#76A9DA" d="M1307.1172,153.063c8.0459,0,13.9072,5.2051,13.9072,13.4707c0,8.0449-5.8613,13.6152-13.9072,13.6152
			c-7.9365,0-13.7988-5.5703-13.7988-13.6152C1293.3184,158.2681,1299.1807,153.063,1307.1172,153.063z M1307.1533,176.0356
			c5.2793,0,8.8838-4.0039,8.8838-9.502c0-5.3164-3.5313-9.4297-8.8838-9.4297c-5.3154,0-8.8467,4.1133-8.8467,9.4297
			C1298.3066,172.0317,1301.9121,176.0356,1307.1533,176.0356z"/>
	</g>
	<g id="top">
		<path class="let-tu" fill="#5B5B5F" d="M383.9277,110.0283h5.0254l4.9873,18.9316h0.0723l5.6797-18.9316h4.7334l5.5703,18.9316h0.0723
			l5.0977-18.9316h4.8779l-7.5361,25.7764h-4.4414l-6.0439-19.3325h-0.0723l-6.0439,19.3325h-4.4414L383.9277,110.0283z"/>
		<path class="let-tu" fill="#5B5B5F" d="M425.834,110.0283h17.0752v4.0049h-12.4883v6.5532h11.833v3.8594h-11.833v7.2813h13.1436v4.0776H425.834
			V110.0283z"/>
		<path class="let-tu" fill="#5B5B5F" d="M450.7725,110.0283h10.0488c3.8955,0,7.9004,1.7837,7.9004,6.4805c0,2.9126-1.8203,4.8423-4.4775,5.6431
			v0.0728c3.2393,0.437,5.5693,2.6216,5.5693,6.0801c0,5.6069-4.8779,7.5-9.7568,7.5h-9.2842V110.0283L450.7725,110.0283z
			 M455.3604,120.5137h4.0771c3.0586,0,4.6963-1.2744,4.6963-3.4951c0-2.2939-1.6377-3.2041-5.0967-3.2041h-3.6768V120.5137
			L455.3604,120.5137z M455.3604,131.9453h4.1133c2.3672,0,5.7529-0.4731,5.7529-3.8589c0-2.6943-1.8574-3.6406-5.5703-3.6406
			h-4.2959V131.9453z"/>
		<path class="let-tu" fill="#5B5B5F" d="M488.8916,110.0283h9.1377c6.7354,0,14.2354,3.2036,14.2354,12.8882c0,9.0288-7.5,12.8882-14.2354,12.8882
			h-9.1377V110.0283z M497.3018,131.7998c4.7334,0,10.0479-1.9297,10.0479-8.8833c0-7.3906-5.3145-8.9561-10.0479-8.9561h-3.8232
			v17.8394H497.3018z"/>
		<path class="let-tu" fill="#5B5B5F" d="M519.4375,110.0283h17.0752v4.0049h-12.4883v6.5532h11.833v3.8594h-11.833v7.2813h13.1436v4.0776h-17.7305
			V110.0283z"/>
		<path class="let-tu" fill="#5B5B5F" d="M557.5195,115.4165c-0.9834-1.2744-2.9131-2.2207-4.7334-2.2207c-2.1113,0-4.5508,1.019-4.5508,3.5313
			c0,2.3667,2.002,3.0586,4.915,3.9688c3.3135,1.019,7.5361,2.4756,7.5361,7.5361c0,5.5342-4.332,8.228-9.3926,8.228
			c-3.3496,0-6.8086-1.2744-8.8477-3.6772l3.2773-3.0581c1.2734,1.7476,3.6045,2.8398,5.6426,2.8398
			c2.1484,0,4.6602-1.0557,4.6602-3.8228c0-2.6943-2.6943-3.459-5.9346-4.478c-3.1309-0.9829-6.5156-2.5122-6.5156-7.3179
			c0-5.2427,4.7686-7.5728,9.4287-7.5728c2.585,0,5.5342,0.9102,7.5,2.7666L557.5195,115.4165z"/>
		<path class="let-tu" fill="#5B5B5F" d="M576.0869,110.0283h3.9688l11.1045,25.7764h-5.2432l-2.4033-5.8979h-11.1768l-2.3301,5.8979h-5.1338
			L576.0869,110.0283z M581.9121,125.9746l-3.9688-10.4854l-4.041,10.4854H581.9121z"/>
		<path class="let-tu" fill="#5B5B5F" d="M596.4385,110.0283h8.9561c4.8428,0,9.5029,1.9297,9.5029,7.3906c0,3.7134-2.2939,6.1528-5.8984,6.9536
			l6.8809,11.4321h-5.5342l-5.9707-10.9224h-3.3496v10.9224h-4.5869V110.0283L596.4385,110.0283z M604.7754,121.1323
			c2.585,0,5.5342-0.6187,5.5342-3.75c0-2.8032-2.7666-3.4951-5.1338-3.4951h-4.1504v7.2451H604.7754z"/>
		<path class="let-tu" fill="#5B5B5F" d="M622.0693,110.0283h8.9561c4.8438,0,9.5029,1.9297,9.5029,7.3906c0,3.7134-2.2939,6.1528-5.8984,6.9536
			l6.8809,11.4321h-5.5342l-5.9707-10.9224h-3.3496v10.9224h-4.5869V110.0283L622.0693,110.0283z M630.4063,121.1323
			c2.585,0,5.5342-0.6187,5.5342-3.75c0-2.8032-2.7666-3.4951-5.1338-3.4951h-4.1504v7.2451H630.4063z"/>
		<path class="let-tu" fill="#5B5B5F" d="M660.2617,109.373c8.0459,0,13.9072,5.2061,13.9072,13.4707c0,8.0459-5.8613,13.6162-13.9072,13.6162
			c-7.9355,0-13.7988-5.5703-13.7988-13.6162C646.4629,114.5791,652.3262,109.373,660.2617,109.373z M660.2979,132.3462
			c5.2803,0,8.8838-4.0049,8.8838-9.5024c0-5.3154-3.5313-9.4297-8.8838-9.4297c-5.3154,0-8.8467,4.1143-8.8467,9.4297
			C651.4512,128.3413,655.0557,132.3462,660.2979,132.3462z"/>
		<path class="let-tu" fill="#5B5B5F" d="M681.3418,110.0283h4.5869v21.6987h10.959v4.0776h-15.5459V110.0283z"/>
		<path class="let-tu" fill="#5B5B5F" d="M702.6758,110.0283h4.5869v21.6987h10.959v4.0776h-15.5459V110.0283z"/>
		<path class="let-tu" fill="#5B5B5F" d="M732.0928,110.0283h3.9688l11.1045,25.7764h-5.2432l-2.4023-5.8979h-11.1777l-2.3301,5.8979h-5.1328
			L732.0928,110.0283z M737.918,125.9746l-3.9668-10.4854l-4.041,10.4854H737.918z"/>
		<path class="let-tu" fill="#5B5B5F" d="M752.4453,110.0283h9.1387c6.7354,0,14.2354,3.2036,14.2354,12.8882c0,9.0288-7.5,12.8882-14.2354,12.8882
			h-9.1387V110.0283z M760.8555,131.7998c4.7324,0,10.0488-1.9297,10.0488-8.8833c0-7.3906-5.3164-8.9561-10.0488-8.9561h-3.8232
			v17.8394H760.8555z"/>
		<path class="let-tu" fill="#5B5B5F" d="M790.2012,110.0283h3.9678l11.1045,25.7764h-5.2432l-2.4023-5.8979h-11.1768l-2.3301,5.8979h-5.1338
			L790.2012,110.0283z M796.0254,125.9746l-3.9678-10.4854l-4.041,10.4854H796.0254z"/>
		<path class="let-tu" fill="#5B5B5F" d="M821.7295,110.0283h8.4102c5.8975,0,9.7207,2.0752,9.7207,7.4634c0,5.6797-4.5508,7.6455-10.0117,7.6455
			h-3.5322v10.6675h-4.5869V110.0283L821.7295,110.0283z M829.5205,121.2783c2.9854,0,5.7158-0.7285,5.7158-3.7866
			s-2.7305-3.6045-5.5703-3.6045h-3.3496v7.3911H829.5205z"/>
		<path class="let-tu" fill="#5B5B5F" d="M859.2295,109.373c8.0459,0,13.9072,5.2061,13.9072,13.4707c0,8.0459-5.8613,13.6162-13.9072,13.6162
			c-7.9365,0-13.7988-5.5703-13.7988-13.6162C845.4307,114.5791,851.293,109.373,859.2295,109.373z M859.2656,132.3462
			c5.2793,0,8.8838-4.0049,8.8838-9.5024c0-5.3154-3.5303-9.4297-8.8838-9.4297c-5.3145,0-8.8467,4.1143-8.8467,9.4297
			C850.4189,128.3413,854.0234,132.3462,859.2656,132.3462z"/>
		<path class="let-tu" fill="#5B5B5F" d="M880.3096,110.0283h8.9561c4.8428,0,9.5029,1.9297,9.5029,7.3906c0,3.7134-2.2939,6.1528-5.8975,6.9536
			l6.8799,11.4321h-5.5342l-5.9707-10.9224h-3.3496v10.9224h-4.5869V110.0283z M888.6465,121.1323
			c2.585,0,5.5342-0.6187,5.5342-3.75c0-2.8032-2.7666-3.4951-5.1338-3.4951h-4.1504v7.2451H888.6465z"/>
		<path class="let-tu" fill="#5B5B5F" d="M925.2012,110.0283h3.9678l11.1045,25.7764h-5.2432l-2.4023-5.8979h-11.1768l-2.3301,5.8979h-5.1338
			L925.2012,110.0283z M931.0254,125.9746l-3.9678-10.4854l-4.041,10.4854H931.0254z"/>
		<path class="let-tu" fill="#5B5B5F" d="M967.4697,134.4575c-2.585,1.2378-5.6797,2.0024-9.7207,2.0024c-8.3008,0-14.0889-5.5703-14.0889-13.6162
			c0-8.2646,6.043-13.4707,13.9795-13.4707c4.0781,0,7.7188,1.3105,9.7939,3.2402l-3.167,3.4224
			c-1.3115-1.4565-3.8232-2.6216-6.5898-2.6216c-5.4248,0-8.957,4.1143-8.957,9.4297c0,5.4976,3.4951,9.5024,9.1748,9.5024
			c1.9297,0,3.6406-0.2915,5.1338-0.9102v-6.5537h-5.4248v-3.7861h9.8662V134.4575z"/>
		<path class="let-tu" fill="#5B5B5F" d="M975.7715,110.0283h17.0752v4.0049h-12.4883v6.5532h11.833v3.8594h-11.833v7.2813h13.1436v4.0776h-17.7305
			V110.0283z"/>
		<path class="let-tu" fill="#5B5B5F" d="M1000.71,110.0283h6.0801l11.9775,19.2959h0.0732v-19.2959h4.5869v25.7764h-5.8252l-12.2314-19.915
			h-0.0742v19.915h-4.5869V110.0283L1000.71,110.0283z"/>
		<path class="let-tu" fill="#5B5B5F" d="M1050.4434,116.0718c-1.3477-1.8569-3.7871-2.6577-5.8623-2.6577c-5.3154,0-8.9189,4.1143-8.9189,9.4297
			c0,5.6064,3.4219,9.5024,8.7373,9.5024c2.7666,0,4.9512-1.2017,6.2627-2.9858l3.6768,2.585
			c-2.2578,2.8398-5.6074,4.5146-9.9756,4.5146c-8.0459,0-13.7627-5.5703-13.7627-13.6162c0-8.2646,6.0439-13.4707,13.9805-13.4707
			c3.3496,0,7.3184,1.2378,9.3574,3.9316L1050.4434,116.0718z"/>
		<path class="let-tu" fill="#5B5B5F" d="M1059.9102,110.0283h4.5859v25.7764h-4.5859V110.0283z"/>
		<path class="let-tu" fill="#5B5B5F" d="M1080.9893,110.0283h3.9688l11.1045,25.7764h-5.2432l-2.4023-5.8979h-11.1777l-2.3291,5.8979h-5.1338
			L1080.9893,110.0283z M1086.8145,125.9746l-3.9678-10.4854l-4.041,10.4854H1086.8145z"/>
		<path class="let-tu" fill="#5B5B5F" d="M1123.3691,115.3438v20.4609h-6.2266v-20.4609h-7.2822v-5.3154h20.7891v5.3154H1123.3691z"/>
		<path class="let-tu" fill="#5B5B5F" d="M1146.96,136.4966c-6.7715,0-10.9941-4.2236-10.9941-10.4126v-16.0557h6.1885v15.5459
			c0,2.7671,1.3477,5.3154,4.8428,5.3154c3.5313,0,4.8418-2.5483,4.8418-5.3154v-15.5459h6.2256v16.0557
			C1158.0645,132.2729,1153.6963,136.4966,1146.96,136.4966z"/>
		<path class="let-tu" fill="#5B5B5F" d="M1178.4893,136.4966c-7.9365,0-13.8701-5.5342-13.8701-13.6167c0-8.2642,6.1162-13.5435,13.9795-13.5435
			c3.6045,0,7.5,1.3105,9.6484,3.7866l-4.2236,4.2231c-1.165-1.6021-3.2402-2.3667-5.2061-2.3667
			c-4.333,0-7.4268,3.3496-7.4268,7.9004c0,4.6968,3.0215,7.9004,7.3174,7.9004c2.4395,0,4.3701-1.0923,5.4609-2.6211l4.333,4.0776
			C1186.2441,134.8579,1182.8223,136.4966,1178.4893,136.4966z"/>
		<path class="let-tu" fill="#5B5B5F" d="M1193.8906,135.8047v-25.7764h6.2617v25.7764H1193.8906z"/>
		<path class="let-tu" fill="#5B5B5F" d="M1218.9385,136.4966c-6.7725,0-10.9951-4.2236-10.9951-10.4126v-16.0557h6.1885v15.5459
			c0,2.7671,1.3477,5.3154,4.8428,5.3154c3.5313,0,4.8418-2.5483,4.8418-5.3154v-15.5459h6.2256v16.0557
			C1230.042,132.2729,1225.6738,136.4966,1218.9385,136.4966z"/>
		<path class="let-tu" fill="#5B5B5F" d="M1247.4102,135.8047h-9.6123v-25.7764h9.3213c7.3164,0,14.7432,3.0581,14.7432,12.8154
			C1261.8623,131.9092,1254.5088,135.8047,1247.4102,135.8047z M1246.9717,115.3438h-3.0938v15.0728h2.9482
			c4.4424,0,8.5557-1.8203,8.5557-7.5728C1255.3818,117.0547,1251.2686,115.3438,1246.9717,115.3438z"/>
		<path class="let-tu" fill="#5B5B5F" d="M1285.3096,135.8047l-2.0029-5.0605h-9.9756l-1.8936,5.0605h-6.7715l10.8135-25.7764h6.043
			l10.7041,25.7764H1285.3096z M1278.3916,116.9092l-3.2764,8.8472h6.4805L1278.3916,116.9092z"/>
		<path class="let-tu" fill="#5B5B5F" d="M1306.7168,135.8047h-9.6113v-25.7764h9.3203c7.3184,0,14.7441,3.0581,14.7441,12.8154
			C1321.1699,131.9092,1313.8164,135.8047,1306.7168,135.8047z M1306.2793,115.3438h-3.0947v15.0728h2.9492
			c4.4424,0,8.5557-1.8203,8.5557-7.5728C1314.6895,117.0547,1310.5762,115.3438,1306.2793,115.3438z"/>
	</g>
</g>
</svg>
